<svg xmlns="http://www.w3.org/2000/svg"
    width="128"
    height="83.321"
    viewBox="0 0 128 83.321">
    <g transform="translate(-335 -192.679)">
        <g transform="translate(362.862 192.679)">
            <path
                d="M531.719,247.31a15.184,15.184,0,0,0-8.518,2.6l2.266,3.366a11.2,11.2,0,1,1-3.749,14.324h-4.4a15.253,15.253,0,1,0,14.4-20.288Z"
                transform="translate(-475.751 -229.103)"
                fill="#217940" />
            <path
                d="M419.048,262.564a11.214,11.214,0,1,1-1.2-5.036h4.4a15.255,15.255,0,1,0,.855,5.036Z"
                transform="translate(-392.594 -229.103)"
                fill="#217940" />
            <g transform="translate(8.966)">
                <g transform="translate(0 26.2)">
                    <path
                        d="M432.851,278.549a7.256,7.256,0,0,1-13.355,3.94h7.027l2.271-3.94-2.271-3.934H419.5a7.256,7.256,0,0,1,13.355,3.934Z"
                        transform="translate(-419.496 -271.291)"
                        fill="#bacc24" />
                </g>
                <g transform="translate(10.07)">
                    <path
                        d="M486.642,228.177H451.747a2.037,2.037,0,1,1,0-4.074h31.067L463.8,195.854a2.037,2.037,0,0,1,1.69-3.175h22.8a2.037,2.037,0,0,1,1.883,1.26,7.908,7.908,0,0,1-5.353,10.7,2.037,2.037,0,1,1-1.352-3.843,4.663,4.663,0,0,0,2.9-2.238,3.732,3.732,0,0,0,.294-1.809H469.319L488.332,225a2.037,2.037,0,0,1-1.69,3.174Z"
                        transform="translate(-449.71 -192.679)"
                        fill="#bacc24" />
                </g>
            </g>
        </g>
        <text
            transform="translate(399 268.153)"
            fill="#217940"
            font-size="24"
            font-family="pantaran">
            <tspan
                x="-63.076"
                y="0">e-cyclehub
            </tspan>
        </text>
        <text
            transform="translate(386 275)"
            fill="#217940"
            font-size="4"
            font-family="Montserrat-Regular, Montserrat">
            <tspan
                x="0"
                y="0">bicycle and e-bike services simplified
            </tspan>
        </text>
    </g>
</svg>