<svg xmlns="http://www.w3.org/2000/svg"
    width="50.628"
    height="34.629"
    viewBox="0 0 50.628 34.629">
    <path
        d="M527.556,247.31a10.794,10.794,0,0,0-6.055,1.847l1.611,2.393a7.962,7.962,0,1,1-2.665,10.182H517.32a10.843,10.843,0,1,0,10.236-14.422Z"
        transform="translate(-487.77 -234.367)"
        fill="#217940" />
    <path
        d="M411.4,258.153a7.972,7.972,0,1,1-.854-3.58h3.127a10.844,10.844,0,1,0,.607,3.58Z"
        transform="translate(-392.594 -234.367)"
        fill="#217940" />
    <g transform="translate(6.373)">
        <g transform="translate(0 18.625)">
            <path
                d="M428.989,276.45a5.158,5.158,0,0,1-9.493,2.8h5l1.615-2.8-1.615-2.8h-5a5.158,5.158,0,0,1,9.493,2.8Z"
                transform="translate(-419.496 -271.291)"
                fill="#bacc24" />
        </g>
        <g transform="translate(7.158)">
            <path
                d="M475.964,217.914H451.158a1.448,1.448,0,1,1,0-2.9h22.085l-13.516-20.081a1.448,1.448,0,0,1,1.2-2.257h16.21a1.448,1.448,0,0,1,1.339.9,5.621,5.621,0,0,1-3.805,7.61,1.448,1.448,0,1,1-.961-2.732,3.315,3.315,0,0,0,2.059-1.591,2.653,2.653,0,0,0,.209-1.286h-12.33l13.516,20.081a1.448,1.448,0,0,1-1.2,2.257Z"
                transform="translate(-449.71 -192.679)"
                fill="#bacc24" />
        </g>
    </g>
</svg>