<svg xmlns="http://www.w3.org/2000/svg" width="267.019" height="223.989" viewBox="0 0 267.019 223.989"><path d="M437.763,788.309H182.242a.328.328,0,1,1,0-.655H437.763a.328.328,0,1,1,0,.655Z" transform="translate(-171.072 -564.445)" fill="#3f3d56"/><g transform="translate(-55.412 -292)"><g transform="translate(55.412 292)"><ellipse cx="31.822" cy="31.822" rx="31.822" ry="31.822" transform="translate(47.132 86.689)" fill="#e6e6e6"/><path d="M386.621,509.79l7.828,4.851V481.853l-8.774-5.437a3.4,3.4,0,0,1-1.485-1.977h0a3.4,3.4,0,0,1,2.431.45l7.828,4.851V467.025a30.082,30.082,0,0,1,.9-7.3,30.083,30.083,0,0,1,.9,7.3v20.752l11.548-7.156a5.659,5.659,0,0,1,3.074-.848,5.66,5.66,0,0,1-2.127,2.375l-12.494,7.742v78.2h-1.8V516.754l-8.774-5.437a3.4,3.4,0,0,1-1.485-1.977h0A3.4,3.4,0,0,1,386.621,509.79Z" transform="translate(-316.265 -344.811)" fill="#ccc"/><ellipse cx="31.822" cy="31.822" rx="31.822" ry="31.822" transform="translate(0 89.391)" fill="#e6e6e6"/><path d="M250.359,518.042l-7.828,4.851V490.105l8.774-5.437a3.4,3.4,0,0,0,1.485-1.977h0a3.4,3.4,0,0,0-2.431.45l-7.828,4.851V475.278a30.083,30.083,0,0,0-.9-7.3,30.082,30.082,0,0,0-.9,7.3V496.03l-11.548-7.156a5.659,5.659,0,0,0-3.074-.848,5.659,5.659,0,0,0,2.127,2.375l12.494,7.742v75.01h1.8V525.007l8.774-5.437a3.4,3.4,0,0,0,1.485-1.977h0A3.4,3.4,0,0,0,250.359,518.042Z" transform="translate(-209.94 -350.363)" fill="#ccc"/><ellipse cx="54.789" cy="54.789" rx="54.789" ry="54.789" transform="translate(0.148)" fill="#e6e6e6"/><path d="M303.968,343.36l-13.477,8.351V295.259L305.6,285.9a5.86,5.86,0,0,0,2.557-3.4h0a5.86,5.86,0,0,0-4.186.775l-13.477,8.351V269.73a51.8,51.8,0,0,0-1.546-12.562A51.8,51.8,0,0,0,287.4,269.73v35.729l-19.883-12.321a9.744,9.744,0,0,0-5.292-1.46,9.744,9.744,0,0,0,3.663,4.089L287.4,309.1V431.476h3.093V355.35l15.106-9.361a5.86,5.86,0,0,0,2.557-3.4h0A5.86,5.86,0,0,0,303.968,343.36Z" transform="translate(-234.228 -208.565)" fill="#ccc"/></g><g transform="translate(-251 -1226)"><path d="M592.089,166.549h-.739v-37.1a12.694,12.694,0,0,0-12.694-12.694H496.03a12.694,12.694,0,0,0-12.694,12.694V145.7h-.28a.746.746,0,0,0-.746.746v7.27a.746.746,0,0,0,.746.746h.28v7.277h-.345a.745.745,0,0,0-.746.746v13.758a.746.746,0,0,0,.746.746h.345v5.336h-.313a.745.745,0,0,0-.746.746v13.889a.746.746,0,0,0,.746.746h.313V323.582a12.694,12.694,0,0,0,12.694,12.694h82.627a12.694,12.694,0,0,0,12.694-12.694V193.158h.739a.746.746,0,0,0,.746-.745V167.295A.746.746,0,0,0,592.089,166.549Z" transform="translate(-98.815 1405.22)" fill="#3f3d56"/><path d="M632.961,139.773H620.4a1.424,1.424,0,0,1-1.423-1.422v-.544a1.424,1.424,0,0,1,1.423-1.422h12.564a1.424,1.424,0,0,1,1.423,1.422v.544A1.424,1.424,0,0,1,632.961,139.773Z" transform="translate(-191.03 1391.98)" fill="#fff"/><circle cx="1.739" cy="1.739" r="1.739" transform="translate(445.471 1528.322)" fill="#fff"/><path d="M592.179,134.313H579.807V135.8a7.065,7.065,0,0,1-7.065,7.065H533.329a7.062,7.062,0,0,1-7.065-7.058v-1.494h-11.6a8.579,8.579,0,0,0-8.579,8.579h0V333.82a8.579,8.579,0,0,0,8.579,8.579h77.515a8.576,8.576,0,0,0,8.576-8.576V142.892a8.576,8.576,0,0,0-8.572-8.579Z" transform="translate(-114.894 1393.377)" fill="#fff"/></g><path d="M569.372,370.817H481.7a2.848,2.848,0,0,1-2.823-2.866V180.791a2.848,2.848,0,0,1,2.823-2.866h87.675a2.848,2.848,0,0,1,2.823,2.866V367.95A2.848,2.848,0,0,1,569.372,370.817Z" transform="translate(-337.447 131.633)" fill="#fff"/><g transform="translate(-5 -4)"><circle cx="16.481" cy="16.481" r="16.481" transform="translate(175.754 428.937)" fill="#ccc"/><circle cx="15.66" cy="15.66" r="15.66" transform="translate(176.576 429.758)" fill="#fff"/><path d="M713.176,553.833l-4.933-6.343,2.868-2.231,2.336,3,7.891-8.329,2.639,2.5Z" transform="translate(-523.555 -101.566)" fill="#00b76a"/><path d="M625.189,633.882l6.183-4.447v2.541H645.8v3.812H631.372v2.541Z" transform="translate(-461.505 -156.412)" fill="#00b76a"/><path d="M763.385,633.882l-6.257-4.447v2.541h-14.6v3.812h14.6v2.541Z" transform="translate(-544.565 -156.412)" fill="#00b76a"/><rect width="27.893" height="45.718" transform="translate(147.382 351.168)" fill="#00b76a"/><rect width="25.515" height="43.044" transform="translate(148.843 352.1)" fill="#fff"/><g transform="translate(156.475 356.492)"><path d="M1081.066,818.891c.96-2.066,2.586-2.728,5.255-2.728,3.178,0,4.828,1.151,5.3,2.827C1085.926,819.068,1081.066,818.891,1081.066,818.891Z" transform="translate(-1081.066 -806.022)" fill="#9bd6e8"/><path d="M1087.087,658.2c-1.345.378-1.286,1.134-1.734,1.835s-1.423,1.169-1.54,1.637.3,1.442-.195,1.988-.663.819-.468,1.364.624,1.4.663,1.52a2.185,2.185,0,0,0,1.247,1.052,14.066,14.066,0,0,1,2.534.585c.624.273,2.629-.349,3.742-.31s1.871-.781,1.793-1.327.821-1.637.818-2.573c0-1-1.169-1.754-1.481-2.417s.039-1.832-1.131-2.525a6.722,6.722,0,0,0-1.832-.594A4.337,4.337,0,0,0,1087.087,658.2Z" transform="translate(-1082.942 -658.107)" fill="#3a384d"/><path d="M1147.307,744.071c-.3.449-.527.468-.858,0a4.272,4.272,0,0,1-.78-1.646v-4.279a.782.782,0,0,1,.78-.78h.858a.782.782,0,0,1,.78.78v4.279A4.33,4.33,0,0,1,1147.307,744.071Z" transform="translate(-1141.525 -732.281)" fill="#f09959"/><path d="M1147.307,737.366h-.858a.782.782,0,0,0-.78.78v3.818a2.332,2.332,0,0,0,2.417-.989v-2.829A.782.782,0,0,0,1147.307,737.366Z" transform="translate(-1141.525 -732.281)" fill="#e38540"/><ellipse cx="2.592" cy="3.532" rx="2.592" ry="3.532" transform="translate(2.761 1.596)" fill="#f09959"/><path d="M1124.207,673.891a4.438,4.438,0,0,1-4.054,2.495s.058-3.664,1.978-3.859,3.05.576,3.44,1.847a3.138,3.138,0,0,1,0,2.109,3.364,3.364,0,0,1-.936-1.267A9.094,9.094,0,0,1,1124.207,673.891Z" transform="translate(-1117.645 -671.573)" fill="#3a384d"/><ellipse cx="0.682" cy="1.023" rx="0.682" ry="1.023" transform="translate(1.355 4.735) rotate(-25.405)" fill="#f09959"/><path d="M1196.9,727.317c-.242.51-.163,1.055.177,1.217s.813-.121,1.055-.632.163-1.055-.177-1.217S1197.143,726.806,1196.9,727.317Z" transform="translate(-1189.337 -722.243)" fill="#f09959"/><path d="M1151.265,767.9a1.122,1.122,0,0,1-1.949,0Z" transform="translate(-1144.937 -760.855)" fill="#fff"/></g><path d="M1106.012,923.8h-6.546a.761.761,0,0,1,0-1.522h6.546a.761.761,0,0,1,0,1.522Z" transform="translate(-941.098 -548.84)" fill="#5bb790"/><path d="M1089.728,960.255h-8.943a.761.761,0,1,1,0-1.522h8.943a.761.761,0,1,1,0,1.522Z" transform="translate(-923.615 -582.953)" fill="#5bb790"/><path d="M1007.358,1100.672H985.6a.442.442,0,1,1,0-.883h21.755a.442.442,0,1,1,0,.883Z" transform="translate(-834.84 -714.959)" fill="#5bb790"/><path d="M1007.358,1132.668H985.6a.442.442,0,1,1,0-.883h21.755a.442.442,0,1,1,0,.883Z" transform="translate(-834.84 -744.901)" fill="#5bb790"/><path d="M1007.358,1164.663H985.6a.442.442,0,1,1,0-.883h21.755a.442.442,0,1,1,0,.883Z" transform="translate(-834.84 -774.844)" fill="#5bb790"/><g transform="translate(153.018 353.85)"><path d="M1043.638,632.937h-15.669a.789.789,0,0,1-.789-.789V617.707a.789.789,0,0,1,.789-.789h15.669a.789.789,0,0,1,.789.789v14.441A.79.79,0,0,1,1043.638,632.937Zm-15.669-15.377a.149.149,0,0,0-.147.147v14.441a.149.149,0,0,0,.147.147h15.669a.149.149,0,0,0,.147-.147V617.707a.149.149,0,0,0-.147-.147Z" transform="translate(-1027.18 -616.918)" fill="#a7cebe"/></g><g transform="translate(154.599 379.288)"><path d="M1053.3,1013.413l.454.919,1.014.147-.734.716.173,1.01-.907-.477-.907.477.173-1.01-.734-.716,1.014-.147Z" transform="translate(-1051.832 -1013.413)" fill="#5bb790"/><path d="M1111.214,1013.413l.454.919,1.014.147-.734.716.173,1.01-.907-.477-.907.477.173-1.01-.734-.716,1.015-.147Z" transform="translate(-1106.03 -1013.413)" fill="#5bb790"/><path d="M1169.128,1013.413l.454.919,1.014.147-.734.716.173,1.01-.907-.477-.907.477.173-1.01-.734-.716,1.014-.147Z" transform="translate(-1160.229 -1013.413)" fill="#5bb790"/><path d="M1227.042,1013.413l.454.919,1.014.147-.734.716.173,1.01-.907-.477-.907.477.173-1.01-.734-.716,1.014-.147Z" transform="translate(-1214.427 -1013.413)" fill="#5bb790"/></g><rect width="27.893" height="45.718" transform="translate(209.566 351.168)" fill="#00b76a"/><rect width="25.515" height="43.044" transform="translate(211.027 352.1)" fill="#fff"/><g transform="translate(218.658 356.767)"><path d="M2069.169,734.408c0,2.048,1.233,5.352,4.141,5.246s3.552-3.255,3.664-4.144S2069.169,734.408,2069.169,734.408Z" transform="translate(-2067.957 -729.788)" fill="#7a4e34"/><path d="M2050.28,818.891c.96-2.066,2.586-2.728,5.255-2.728,3.178,0,4.828,1.151,5.3,2.827C2055.139,819.068,2050.28,818.891,2050.28,818.891Z" transform="translate(-2050.28 -806.297)" fill="#d54a41"/><path d="M2116.521,744.071c-.3.449-.527.468-.857,0a4.27,4.27,0,0,1-.78-1.646v-4.279a.782.782,0,0,1,.78-.78h.857a.782.782,0,0,1,.78.78v4.279A4.33,4.33,0,0,1,2116.521,744.071Z" transform="translate(-2110.739 -732.556)" fill="#f09959"/><path d="M2116.521,737.366h-.857a.782.782,0,0,0-.78.78v3.818a2.333,2.333,0,0,0,2.417-.989v-2.829A.782.782,0,0,0,2116.521,737.366Z" transform="translate(-2110.739 -732.556)" fill="#e38540"/><ellipse cx="2.592" cy="3.532" rx="2.592" ry="3.532" transform="translate(2.761 1.322)" fill="#f09959"/><path d="M2074.607,664.56c-.308,1.086-.983,1.074-1.924,1.43a2.551,2.551,0,0,0-1.7,1.411c-.393.886.178,3.47.178,3.47a5.539,5.539,0,0,1-2.108-4.588c.276-2.8,1.929-3.891,3.486-3.891a2.5,2.5,0,0,1,2.148.948,2.33,2.33,0,0,1,1.613.932c1.054,1.248.73,4.28,0,5.366s-1.216,1.427-1.2,1.378a10.72,10.72,0,0,0,.324-4.086A9.861,9.861,0,0,0,2074.607,664.56Z" transform="translate(-2067.829 -662.391)" fill="#7a4e34"/><path d="M2120.478,767.9a1.122,1.122,0,0,1-1.949,0Z" transform="translate(-2114.15 -761.13)" fill="#fff"/></g><path d="M2075.225,923.8h-6.546a.761.761,0,0,1,0-1.522h6.546a.761.761,0,1,1,0,1.522Z" transform="translate(-1848.128 -548.84)" fill="#5bb790"/><path d="M2058.941,960.255H2050a.761.761,0,0,1,0-1.522h8.944a.761.761,0,0,1,0,1.522Z" transform="translate(-1830.645 -582.953)" fill="#5bb790"/><path d="M1976.571,1100.672h-21.755a.442.442,0,1,1,0-.883h21.755a.442.442,0,1,1,0,.883Z" transform="translate(-1741.87 -714.959)" fill="#5bb790"/><path d="M1976.571,1132.668h-21.755a.442.442,0,0,1,0-.883h21.755a.442.442,0,1,1,0,.883Z" transform="translate(-1741.87 -744.901)" fill="#5bb790"/><path d="M1976.571,1164.663h-21.755a.442.442,0,0,1,0-.883h21.755a.442.442,0,1,1,0,.883Z" transform="translate(-1741.87 -774.844)" fill="#5bb790"/><g transform="translate(215.201 353.85)"><path d="M2012.852,632.937h-15.669a.789.789,0,0,1-.788-.789V617.707a.789.789,0,0,1,.788-.789h15.669a.79.79,0,0,1,.789.789v14.441A.79.79,0,0,1,2012.852,632.937Zm-15.669-15.377a.149.149,0,0,0-.147.147v14.441a.149.149,0,0,0,.147.147h15.669a.149.149,0,0,0,.147-.147V617.707a.149.149,0,0,0-.147-.147Z" transform="translate(-1996.394 -616.918)" fill="#a7cebe"/></g><g transform="translate(216.783 379.288)"><path d="M2022.513,1013.413l.454.919,1.014.147-.734.716.173,1.01-.907-.477-.907.477.173-1.01-.734-.716,1.014-.147Z" transform="translate(-2021.045 -1013.413)" fill="#5bb790"/><path d="M2080.427,1013.413l.454.919,1.014.147-.734.716.173,1.01-.907-.477-.907.477.173-1.01-.734-.716,1.014-.147Z" transform="translate(-2075.244 -1013.413)" fill="#5bb790"/><path d="M2138.342,1013.413l.454.919,1.014.147-.734.716.173,1.01-.907-.477-.908.477.173-1.01-.734-.716,1.014-.147Z" transform="translate(-2129.442 -1013.413)" fill="#5bb790"/><path d="M2196.256,1013.413l.454.919,1.014.147-.734.716.173,1.01-.907-.477-.907.477.173-1.01-.734-.716,1.014-.147Z" transform="translate(-2183.641 -1013.413)" fill="#5bb790"/></g><path d="M1315.356,622.863h-44.019l3.114-45.09h42.492Z" transform="translate(-1102.655 -226.424)" fill="#99bbeb" opacity="0.2"/><rect width="38.097" height="62.443" transform="translate(173.306 345.626)" fill="#00b76a"/><rect width="34.849" height="58.791" transform="translate(175.302 346.899)" fill="#fff"/><g transform="translate(185.285 352.122)"><path d="M1585.128,553.153c-.024-.073-.634-3.575-.707-4.937s2.189-1.556,2.189-1.556,1.848-1,3.186-.486a5.393,5.393,0,0,1,2.856,2.44c.608,1.07-.535,4.4-.535,4.4Z" transform="translate(-1580.935 -546.028)" fill="#2e2d3d"/><path d="M1530.111,756.465c-.008-.057.156-1.436.162-1.492.308-2.9,3.885-3.718,7.455-3.718,4.194,0,7.039.768,7.493,3.783.013.088.255,1.47.243,1.563C1537.692,756.708,1530.111,756.465,1530.111,756.465Z" transform="translate(-1530.111 -738.088)" fill="#d5e1e8"/><path d="M1620.278,652.79c-.416.613-.72.639-1.171,0-.359-.508-1.556-1.667-1.556-2.253l.491-5.84a1.068,1.068,0,0,1,1.065-1.065h1.171a1.068,1.068,0,0,1,1.065,1.065l.228,5.84C1621.571,651.123,1620.651,652.239,1620.278,652.79Z" transform="translate(-1611.94 -637.37)" fill="#f09959"/><path d="M1621.224,643.632h-1.171a1.068,1.068,0,0,0-1.065,1.065l-.427,5.181a4.144,4.144,0,0,0,3.877-1.37l-.149-3.811A1.068,1.068,0,0,0,1621.224,643.632Z" transform="translate(-1612.886 -637.37)" fill="#e38540"/><path d="M1588.283,756.255l1.878,3.471s1.005-.827,1.1-.665a14.865,14.865,0,0,1-.178,2.208,19.263,19.263,0,0,0,2.335-.067c.1-.1-.454-2.222-.227-2.222s.91.616.91.616l2.1-3.341-.461-.112-3.435,1.848-3.674-1.808Z" transform="translate(-1584.551 -742.662)" fill="#bdccd4"/><path d="M1621.754,775.354l1.395.936-.432,2.484,1.881-.1-.47-2.259,1.156-1.055-.543-.512H1622.3Z" transform="translate(-1615.875 -760.162)" fill="#d54a41"/><path d="M1593.907,729.014l-1.725,1.641s1.757,3.125,1.854,3.125,1.491-1.723,1.491-1.723l.893-.016,1.41,1.479,1.638-2.9-1.671-1.771a18.993,18.993,0,0,1-1.686,2.821c-.259.065-.261.1-.471-.065S1593.907,729.014,1593.907,729.014Z" transform="translate(-1588.2 -717.122)" fill="#d5e1e8"/><ellipse cx="3.541" cy="4.824" rx="3.541" ry="4.824" transform="translate(4.211 1.497)" fill="#f09959"/><path d="M1574.051,629.905c.331.7.223,1.441-.242,1.662s-1.11-.165-1.441-.863-.223-1.441.242-1.662S1573.72,629.208,1574.051,629.905Z" transform="translate(-1569.477 -623.658)" fill="#f09959"/><path d="M1695.184,629.905c-.331.7-.223,1.441.242,1.662s1.11-.165,1.442-.863.223-1.441-.242-1.662S1695.515,629.208,1695.184,629.905Z" transform="translate(-1684.413 -623.658)" fill="#f09959"/><path d="M1629.6,675.406s-.7,1.139-1.571,1.139-1.571-1.139-1.571-1.139Z" transform="translate(-1620.273 -667.105)" fill="#fff"/><path d="M1596.953,564.481c1.459-1.021,2.116-.851,3.21.827a3.276,3.276,0,0,0,2.408,1.707l.17-1.74s-1.63-3.153-3.818-2.74a5.776,5.776,0,0,0-3.433,2.383s-.107,3.692.2,3.818.341-1.192.559-1.459-.219-1.532.073-2.116S1596.953,564.481,1596.953,564.481Z" transform="translate(-1591.278 -561.441)" fill="#2e2d3d"/><path d="M1691.718,622.97c.509.558.316,2.772.584,2.748s.365-2.116.292-2.335S1691.718,622.97,1691.718,622.97Z" transform="translate(-1681.35 -618.033)" fill="#2e2d3d"/></g><path d="M1548.8,970.808h-12.215a1.04,1.04,0,0,1,0-2.079H1548.8a1.04,1.04,0,1,1,0,2.079Z" transform="translate(-1349.913 -589.487)" fill="#5bb790"/><path d="M1436.3,1162.594h-29.714a.6.6,0,1,1,0-1.207H1436.3a.6.6,0,1,1,0,1.207Z" transform="translate(-1228.66 -769.785)" fill="#5bb790"/><path d="M1436.3,1206.3h-29.714a.6.6,0,0,1,0-1.207H1436.3a.6.6,0,1,1,0,1.207Z" transform="translate(-1228.66 -810.683)" fill="#5bb790"/><path d="M1436.3,1250h-29.714a.6.6,0,1,1,0-1.207H1436.3a.6.6,0,1,1,0,1.207Z" transform="translate(-1228.66 -851.58)" fill="#5bb790"/><g transform="translate(181.12 349.406)"><path d="M1487.562,525.335h-21.4a.961.961,0,0,1-.96-.96V504.651a.961.961,0,0,1,.96-.96h21.4a.961.961,0,0,1,.96.96v19.725A.961.961,0,0,1,1487.562,525.335Zm-21.4-21a.319.319,0,0,0-.318.318v19.725a.318.318,0,0,0,.318.318h21.4a.319.319,0,0,0,.318-.318V504.651a.319.319,0,0,0-.318-.318Z" transform="translate(-1465.2 -503.691)" fill="#a7cebe"/></g><g transform="translate(180.585 384.034)"><path d="M1458.867,1043.412l.62,1.255,1.385.2-1,.977.237,1.38-1.239-.651-1.239.651.237-1.38-1-.977,1.385-.2Z" transform="translate(-1456.862 -1043.412)" fill="#5bb790"/><path d="M1537.969,1043.412l.62,1.255,1.386.2-1,.977.237,1.38-1.239-.651-1.239.651.237-1.38-1-.977,1.385-.2Z" transform="translate(-1530.889 -1043.412)" fill="#5bb790"/><path d="M1617.072,1043.412l.62,1.255,1.385.2-1,.977.237,1.38-1.24-.651-1.239.651.237-1.38-1-.977,1.385-.2Z" transform="translate(-1604.916 -1043.412)" fill="#5bb790"/><path d="M1696.174,1043.412l.62,1.255,1.386.2-1,.977.237,1.38-1.239-.651-1.239.651.237-1.38-1-.977,1.385-.2Z" transform="translate(-1678.943 -1043.412)" fill="#5bb790"/><path d="M1776.532,1043.412l.62,1.255,1.386.2-1,.977.237,1.38-1.239-.651-1.239.651.236-1.38-1-.977,1.385-.2Z" transform="translate(-1754.146 -1043.412)" fill="#5bb790"/></g><text transform="translate(181 375)" fill="#00b76a" font-size="3" font-family="Montserrat-Regular, Montserrat"><tspan x="0" y="0">Customer</tspan></text></g><g transform="translate(-22 1)"><path d="M428.064,650.475h-3.872l-1.842-14.937h5.715Z" transform="translate(-151.288 -139.24)" fill="#ffb8b8"/><path d="M581.528,782.241H569.042v-.158a4.86,4.86,0,0,1,4.86-4.86h7.626Z" transform="translate(-303.765 -267.252)" fill="#2f2e41"/><path d="M525.975,642.935l-3.65,1.293L515.6,630.764l5.387-1.908Z" transform="translate(-205.941 -135.323)" fill="#ffb8b8"/><path d="M689.47,772.579l-11.77,4.168-.053-.149a4.86,4.86,0,0,1,2.959-6.2h0l7.189-2.546Z" transform="translate(-367.251 -261.759)" fill="#2f2e41"/><path d="M587.712,666.642a1.453,1.453,0,0,1-.259-.023l-4.735-.861a1.428,1.428,0,0,1-1.168-1.37c-.688-31.875,2.7-53.294,10.058-68.647a1.413,1.413,0,0,1,1.482-.784l17.029,2.458a1.423,1.423,0,0,1,1.209,1.247l1.5,13.236a1.119,1.119,0,0,0,.045.21L629.2,661.024a1.428,1.428,0,0,1-.905,1.779l-4.412,1.471a1.429,1.429,0,0,1-1.721-.713l-22.085-41.642a.474.474,0,0,0-.887.11l-10.095,43.5a1.415,1.415,0,0,1-1.384,1.117Z" transform="translate(-311.045 -160.422)" fill="#2f2e41"/><path d="M554.783,530.882a3.3,3.3,0,0,1,.076.518l13.568,7.828,3.3-1.9,3.516,4.6-5.512,3.929a2.527,2.527,0,0,1-3.032-.074l-13.992-11.038a3.316,3.316,0,1,1,2.077-3.867Z" transform="translate(-291.574 -121.379)" fill="#ffb8b8"/><path d="M597.42,545.32a1.42,1.42,0,0,1,.7-.956l6.227-3.481a3.947,3.947,0,1,1,4.841,6.236l-4.964,5.155a1.422,1.422,0,0,1-2.149-.118l-4.385-5.683A1.42,1.42,0,0,1,597.42,545.32Z" transform="translate(-320.38 -128.254)" fill="#00b76a"/><ellipse cx="7.758" cy="7.758" rx="7.758" ry="7.758" transform="translate(283.782 393.207)" fill="#ffb8b8"/><path d="M623.735,566.147a1.413,1.413,0,0,1-.23-.019l-16.789-2.752a1.421,1.421,0,0,1-1.161-1.7l.817-3.851c-.418-.624-3.823-6.047.324-11.142a6.952,6.952,0,0,1,6.454-7.24l8.676-.659a6.989,6.989,0,0,1,7.271,8.808l-3.977,17.447A1.425,1.425,0,0,1,623.735,566.147Z" transform="translate(-324.641 -127.5)" fill="#00b76a"/><path d="M665.329,591.435a3.393,3.393,0,0,0-1.349-5.025l-9.559-29.39-5.54,2.628,10.459,28.616a3.412,3.412,0,0,0,5.988,3.17Z" transform="translate(-350.557 -138.197)" fill="#ffb8b8"/><path d="M652.37,551.81l-7.356,2.222a1.521,1.521,0,0,1-1.945-1.234l-1.117-7.579a4.225,4.225,0,1,1,8.1-2.42l3.257,6.906a1.521,1.521,0,0,1-.936,2.105Z" transform="translate(-346.392 -128.094)" fill="#00b76a"/><path d="M612.268,498.1a9.616,9.616,0,0,0,10.174-2.137c-.814,2.15-.586,11.268-.586,11.268s7.216-3.426,8.2-4.025c5.782-3.539-2.193-18.934-8.827-16.506a4.531,4.531,0,0,1-6.825,1.143,5.958,5.958,0,0,0-3.019,3.461,8.656,8.656,0,0,0,.63,7.3Z" transform="translate(-328.269 -96.831)"/><path d="M588.106,388.262a.691.691,0,1,1,.693-.692.691.691,0,0,1-.693.692Z" transform="translate(-317.917 -3.736)" fill="#fff"/><path d="M574.672,390.614a1.847,1.847,0,1,1-1.847,1.847,1.847,1.847,0,0,1,1.847-1.847h0m0-.923a2.771,2.771,0,1,0,2.771,2.771h0A2.771,2.771,0,0,0,574.672,389.691Z" transform="translate(-307.484 -5.626)" fill="#fff"/></g></g></svg>