<svg xmlns="http://www.w3.org/2000/svg" width="275.621" height="222.229" viewBox="0 0 275.621 222.229"><g transform="translate(-3951.957 -7256.354)"><rect width="264.689" height="0.651" transform="translate(3962.889 7477.932)" fill="#3f3d56"/><circle cx="31.646" cy="31.646" r="31.646" transform="translate(3998.828 7342.563)" fill="#e6e6e6"/><path d="M386.608,509.513l7.784,4.824V481.73l-8.725-5.407a3.385,3.385,0,0,1-1.477-1.966h0a3.385,3.385,0,0,1,2.418.447l7.784,4.824V466.985a29.915,29.915,0,0,1,.893-7.256,29.917,29.917,0,0,1,.893,7.256v20.637l11.484-7.116a5.628,5.628,0,0,1,3.057-.843,5.628,5.628,0,0,1-2.116,2.362l-12.425,7.7v77.763h-1.786V516.438l-8.726-5.407a3.385,3.385,0,0,1-1.477-1.966h0A3.385,3.385,0,0,1,386.608,509.513Z" transform="translate(3635.316 6910.907)" fill="#ccc"/><circle cx="31.646" cy="31.646" r="31.646" transform="translate(3951.957 7345.25)" fill="#e6e6e6"/><path d="M250.225,517.766l-7.784,4.824V489.983l8.725-5.407a3.385,3.385,0,0,0,1.477-1.966h0a3.385,3.385,0,0,0-2.418.447l-7.784,4.824V475.238a29.916,29.916,0,0,0-.893-7.256,29.916,29.916,0,0,0-.893,7.256v20.637l-11.484-7.116a5.628,5.628,0,0,0-3.057-.843,5.628,5.628,0,0,0,2.116,2.362l12.425,7.7v74.6h1.786v-47.88l8.725-5.407a3.385,3.385,0,0,0,1.477-1.966h0A3.385,3.385,0,0,0,250.225,517.766Z" transform="translate(3741.927 6905.341)" fill="#ccc"/><circle cx="54.486" cy="54.486" r="54.486" transform="translate(3952.104 7256.354)" fill="#e6e6e6"/><path d="M303.737,342.883l-13.4,8.305v-56.14l15.023-9.309a5.827,5.827,0,0,0,2.543-3.385h0a5.828,5.828,0,0,0-4.163.77l-13.4,8.305V269.66a51.509,51.509,0,0,0-1.538-12.492,51.508,51.508,0,0,0-1.538,12.492v35.532L267.486,292.94a9.69,9.69,0,0,0-5.263-1.452,9.69,9.69,0,0,0,3.643,4.066l21.393,13.257v121.7h3.076v-75.7l15.023-9.309a5.828,5.828,0,0,0,2.543-3.385h0A5.828,5.828,0,0,0,303.737,342.883Z" transform="translate(3717.574 7047.52)" fill="#ccc"/><path d="M592.089,166.549h-.739v-37.1a12.694,12.694,0,0,0-12.694-12.694H496.03a12.694,12.694,0,0,0-12.694,12.694V145.7h-.28a.746.746,0,0,0-.746.746v7.27a.746.746,0,0,0,.746.746h.28v7.277h-.345a.745.745,0,0,0-.746.746v13.758a.746.746,0,0,0,.746.746h.345v5.336h-.313a.745.745,0,0,0-.746.746v13.889a.746.746,0,0,0,.746.746h.313V323.582a12.694,12.694,0,0,0,12.694,12.694h82.627a12.694,12.694,0,0,0,12.694-12.694V193.158h.739a.746.746,0,0,0,.746-.745V167.295A.746.746,0,0,0,592.089,166.549Z" transform="translate(3569.185 7142.22)" fill="#3f3d56"/><path d="M632.961,139.773H620.4a1.424,1.424,0,0,1-1.423-1.422v-.544a1.424,1.424,0,0,1,1.423-1.422h12.564a1.424,1.424,0,0,1,1.423,1.422v.544A1.424,1.424,0,0,1,632.961,139.773Z" transform="translate(3476.97 7128.98)" fill="#fff"/><circle cx="1.739" cy="1.739" r="1.739" transform="translate(4113.471 7265.322)" fill="#fff"/><path d="M592.179,134.313H579.807V135.8a7.065,7.065,0,0,1-7.065,7.065H533.329a7.062,7.062,0,0,1-7.065-7.058v-1.494h-11.6a8.579,8.579,0,0,0-8.579,8.579h0V333.82a8.579,8.579,0,0,0,8.579,8.579h77.515a8.576,8.576,0,0,0,8.576-8.576V142.892a8.576,8.576,0,0,0-8.572-8.579Z" transform="translate(3553.106 7130.377)" fill="#fff"/><path d="M615.137,665.2H581.928a8.953,8.953,0,0,1,0-17.906h33.209a8.953,8.953,0,1,1,0,17.906Z" transform="translate(3507.994 6784.409)" fill="#06d494"/><path d="M613.322,463.589H554.068a3.093,3.093,0,1,1,0-6.186h59.254a3.093,3.093,0,0,1,0,6.186Z" transform="translate(3522.831 6912.476)" fill="#e6e6e6"/><path d="M613.322,491.589H554.068a3.093,3.093,0,1,1,0-6.186h59.254a3.093,3.093,0,0,1,0,6.186Z" transform="translate(3522.831 6893.592)" fill="#e6e6e6"/><path d="M613.322,519.589H554.068a3.093,3.093,0,1,1,0-6.186h59.254a3.093,3.093,0,0,1,0,6.186Z" transform="translate(3522.831 6874.708)" fill="#e6e6e6"/><path d="M613.322,547.589H554.068a3.093,3.093,0,1,1,0-6.186h59.254a3.093,3.093,0,0,1,0,6.186Z" transform="translate(3522.831 6855.824)" fill="#e6e6e6"/><path d="M572.951,575.589H554.068a3.093,3.093,0,1,1,0-6.186h18.883a3.093,3.093,0,1,1,0,6.186Z" transform="translate(3522.831 6836.939)" fill="#e6e6e6"/><path d="M604.417,268.186h-77.8a2.6,2.6,0,0,1-2.594-2.594V207.848a2.6,2.6,0,0,1,2.594-2.594h77.8a2.6,2.6,0,0,1,2.594,2.594v57.744a2.6,2.6,0,0,1-2.594,2.594Z" transform="translate(3541.01 7082.532)" fill="#e6e6e6"/><g transform="translate(4159.194 7332.887)" opacity="0.1"><path d="M813.261,345.131q0-.671,0-1.348a10.185,10.185,0,0,0,0,1.045C813.258,344.929,813.261,345.03,813.261,345.131Z" transform="translate(-813.248 -343.783)"/></g><g transform="translate(3958 5247.71)"><path d="M731.7,353.937h-4.926a.633.633,0,0,1-.633-.574l-.986-10.107h8.164l-.986,10.107A.634.634,0,0,1,731.7,353.937Z" transform="translate(-537.312 1778.08)" fill="#e6e6e6"/><path d="M732.14,341.675H724a.636.636,0,0,1-.636-.636v-1.526a.637.637,0,0,1,.636-.636h8.138a.637.637,0,0,1,.636.636v1.526A.636.636,0,0,1,732.14,341.675Z" transform="translate(-536.148 1780.933)" fill="#ccc"/><path d="M866.975,498.972a58.377,58.377,0,0,1-8.39-15.659,1.5,1.5,0,0,1,.708-1.8l12.248-6.563a1.48,1.48,0,0,1,1.3-.053,1.505,1.505,0,0,1,.858,1.005,35.661,35.661,0,0,0,7.822,14.6,1.5,1.5,0,0,1,.362,1.271,1.479,1.479,0,0,1-.763,1.052l-12.248,6.563A1.5,1.5,0,0,1,866.975,498.972Z" transform="translate(-624.19 1692.401)" fill="#ccc"/><path d="M869.764,500.3a.453.453,0,0,0,.565.117l12.248-6.563a.434.434,0,0,0,.227-.313.46.46,0,0,0-.113-.393,36.709,36.709,0,0,1-8.053-15.029.46.46,0,0,0-.264-.312.435.435,0,0,0-.387.016l-12.248,6.563a.453.453,0,0,0-.216.536A57.331,57.331,0,0,0,869.764,500.3Z" transform="translate(-626.144 1690.446)" fill="#fff"/><path d="M882.7,497.711l-6.671,2.945a1.047,1.047,0,0,1-1.379-.534l-.165-.374a1.047,1.047,0,0,1,.534-1.379l6.671-2.945a1.047,1.047,0,0,1,1.379.534l.165.374A1.047,1.047,0,0,1,882.7,497.711Z" transform="translate(-634.543 1679.001)" fill="#ccc"/><path d="M889.7,510.711l-6.671,2.945a1.047,1.047,0,0,1-1.379-.534l-.165-.374a1.047,1.047,0,0,1,.534-1.379l6.671-2.945a1.047,1.047,0,0,1,1.379.534l.165.374a1.047,1.047,0,0,1-.534,1.379Z" transform="translate(-639.103 1670.531)" fill="#ccc"/><path d="M853.724,419.038a3.744,3.744,0,0,1-.719-5.7l-2.813-39.924,8.1.786.223,39.1a3.764,3.764,0,0,1-4.794,5.736Z" transform="translate(-618.775 1758.429)" fill="#a0616a"/><path d="M853.122,381.057a1.562,1.562,0,0,1-.648-1.185l-.594-10.76a4.321,4.321,0,0,1,8.485-1.368l2.608,9.62a1.57,1.57,0,0,1-1.1,1.924l-7.42,2.012A1.562,1.562,0,0,1,853.122,381.057Z" transform="translate(-619.871 1764.206)" fill="#3f3d56"/><path d="M575.889,372.6h-4.273l-2.033-16.48h6.306Z" transform="translate(-356.449 1853.95)" fill="#a0616a"/><path d="M556.96,399.905h8.24v5.188H551.772A5.188,5.188,0,0,1,556.96,399.905Z" transform="translate(-344.845 1825.424)" fill="#2f2e41"/><path d="M621.889,372.6h-4.273l-2.032-16.48h6.306Z" transform="translate(-386.418 1853.95)" fill="#a0616a"/><path d="M602.96,399.905h8.24v5.188H597.772A5.188,5.188,0,0,1,602.96,399.905Z" transform="translate(-374.814 1825.424)" fill="#2f2e41"/><path d="M800.468,526.089l-4.7-.224a1.568,1.568,0,0,1-1.494-1.555c-1.24-19.139-2.957-39.662-.328-47.59a1.568,1.568,0,0,1,1.794-1.563l18.817,2.732a1.559,1.559,0,0,1,1.343,1.54c2.4,9.387,2.511,26.41,2.42,44.1a1.568,1.568,0,0,1-1.568,1.58h-5.071a1.561,1.561,0,0,1-1.549-1.325L807,503.893a1.22,1.22,0,0,0-2.416.044L802.1,524.709a1.574,1.574,0,0,1-1.557,1.382Z" transform="translate(-581.23 1692.158)" fill="#2f2e41"/><path d="M805.392,397a23.671,23.671,0,0,0-8.949-3.065,1.54,1.54,0,0,1-1.064-.583,1.561,1.561,0,0,1-.325-1.185l4.509-33.474a11.577,11.577,0,0,1,6.748-9.046,11.259,11.259,0,0,1,10.941.858q.232.154.455.315a11.563,11.563,0,0,1,4.4,12.049c-2.765,11.311-3.714,29.853-3.877,33.456a1.556,1.556,0,0,1-1.017,1.4,15.712,15.712,0,0,1-5.306.945A13.286,13.286,0,0,1,805.392,397Z" transform="translate(-582.843 1774.586)" fill="#3f3d56"/><circle cx="8.56" cy="8.56" r="8.56" transform="translate(217.761 2102.571)" fill="#a0616a"/><path d="M823.193,297.659a2.765,2.765,0,0,1-4.77-1.536,2.808,2.808,0,0,1,0-.542c.107-1.029.7-1.964.56-3.051a1.6,1.6,0,0,0-.293-.749c-1.272-1.7-4.259.762-5.46-.78-.736-.946.129-2.435-.436-3.492-.746-1.4-2.955-.707-4.34-1.471-1.541-.85-1.449-3.215-.435-4.653a7.32,7.32,0,0,1,5.549-2.825,14.885,14.885,0,0,1,6.27,1.224,12.531,12.531,0,0,1,5.925,4.108,10.029,10.029,0,0,1,1.014,8.539C826.263,294.158,824.5,296.27,823.193,297.659Z" transform="translate(-590.816 1820.244)" fill="#2f2e41"/><path d="M814.16,349.93c-.15-.7-1.436-1.666-3.276-2.45a20.26,20.26,0,0,0-18.3,1.568.864.864,0,0,0-.8.68L785.6,377.1l-.805,3.565-.533,2.359-.805,3.555-.429,1.9a.874.874,0,0,0,.774,1.063l26.726,2.307c.024,0,.052,0,.077,0a.871.871,0,0,0,.864-.815l.254-3.872.272-4.14.118-1.795.268-4.13,1.781-27.127v-.024Z" transform="translate(-575.004 1776.294)" fill="#00b76a"/><path d="M733.069,356.948a3.671,3.671,0,0,1,.083.572l14.971,8.637,3.639-2.095,3.879,5.078-7.785,5.548-17.079-13.474a3.658,3.658,0,1,1,2.292-4.266Z" transform="translate(-537.766 1770.999)" fill="#a0616a"/><path d="M791.278,367.545a1.562,1.562,0,0,1,.451-1.273l7.619-7.621a4.321,4.321,0,0,1,6.68,5.407l-5.426,8.361a1.57,1.57,0,0,1-2.169.462l-6.449-4.185A1.562,1.562,0,0,1,791.278,367.545Z" transform="translate(-580.387 1768.876)" fill="#3f3d56"/><path d="M587.577,193.5l-.268,4.13-27.319-.565.805-3.565Z" transform="translate(-350.199 1959.897)" fill="#ccc"/><path d="M584.689,210.5l-.272,4.14-28.267-.585.805-3.555Z" transform="translate(-347.697 1948.821)" fill="#ccc"/><path d="M809.989,266.25h0a11.15,11.15,0,0,0-11.143,10.8h-2.1a.7.7,0,0,0-.7.7v2.788a.7.7,0,0,0,.7.7h23.7a.7.7,0,0,0,.7-.7V277.4a11.152,11.152,0,0,0-11.152-11.152Z" transform="translate(-583.501 1828.25)" fill="#00b76a"/></g></g></svg>