<svg xmlns="http://www.w3.org/2000/svg" width="276.443" height="220.284" viewBox="0 0 276.443 220.284"><path d="M530.336,656.914h-272.1a.335.335,0,1,1,0-.664h272.1a.335.335,0,1,1,0,.664Z" transform="translate(-257.852 -436.63)" fill="#3f3d56"/><g transform="translate(-55.664 -295.973)"><g transform="translate(-58)"><path d="M2266.732,1319.767c4.408,4.025,2.491,8.049-.767,15.524s-3.833,35.072-3.833,35.072l2.684-.383s-.384-28.364,3.258-36.03,5.175-11.5,8.433-9.008S2266.732,1319.767,2266.732,1319.767Z" transform="translate(-1910.981 -867.304)" fill="#d0d2d0"/><path d="M2276.079,1207.507c.535-2.385,3.714-4.966,7.966-7.155-.632,3.518-2.659,9.27-.561,10.45,2.829,1.591.275-6.44,1.367-10.854a52.517,52.517,0,0,1,13.216-4.335c-.006.016-.011.032-.018.049-2.491,6.324-5.749,8.816-4.408,9.774,1.009.721,4.3-6.585,8.638-10.33,3.258-.173,6.015.268,7.646,1.559,2.521,2,4.212,3.766,1.677,9.842a11.39,11.39,0,0,1-5.5,2c-5.75.575-8.433.766-4.408,2.683,1.97.938,5.274-.053,7.952-.657-.869,1.6-1.937,3.413-3.235,5.477a20.325,20.325,0,0,1-2.693,3.428,8.5,8.5,0,0,1-4.324-.007c-2.683-1.15-9.583-4.791-11.308-3.258-1.688,1.5,12.778,2.451,11.776,6.265-7.012,4.04-15.035,2.118-16.454-1.592C2281.5,1215.859,2274.467,1214.687,2276.079,1207.507Z" transform="translate(-1922.75 -760.255)" fill="#d0d2d0"/><path d="M2248.361,1460.615c-7.666-5.75-15.524-.383-19.549,5.749s-1.15,19.932-1.15,19.932,1.533,0,1.533-.575-4.217-16.29,5.75-23.382c6.235-4.436,10.733-2.3,11.308-.191s-2.491,5.941-2.491,5.941Z" transform="translate(-1880.535 -986.113)" fill="#d0d2d0"/><path d="M2253.295,1391.986c7.667,0,10.158,11.882,8.05,18.782s-4.983,19.74-4.983,19.74l-1.916-1.917s7.282-18.015,5.558-26.065-5.941-9.391-6.708-9.391S2253.295,1391.986,2253.295,1391.986Z" transform="translate(-1903.102 -929.302)" fill="#d0d2d0"/><path d="M2289.122,1514.784a5.552,5.552,0,0,1,2.018-1.7,15.25,15.25,0,0,1-.4,1.642c-.961,3.144-2.08,7.52-3.015,11.354-.085-.491-.216-1.247-.418-2.415-.048-.276-.085-.575-.111-.892A74.372,74.372,0,0,0,2289.122,1514.784Z" transform="translate(-1932.499 -1033.265)" fill="#d0d2d0"/><path d="M2291.558,1459.932c14.565-6.133,6.892-14.549,19.732-8.991a9.532,9.532,0,0,1,3.11,2.74,9.559,9.559,0,0,1-4.069.326c-3.833-.575-2.491,2.491,3.833,3.258a14.225,14.225,0,0,1,2.964.625c3.013,5.787,4.371,13.4-2.006,16.049a14.442,14.442,0,0,1-4.538.931c-1.968-1.564.48-10.613-2.553-9.364-2.912,1.2.913,7.757.389,9.41a41.993,41.993,0,0,1-9.1-1.275,4.53,4.53,0,0,1-2.406-2.768c-.958-4.025,5.366-6.516,5.558-9.966.176-3.171-2.318,6.977-8.926,8.47C2287.573,1466.587,2284.75,1462.8,2291.558,1459.932Z" transform="translate(-1932.84 -978.355)" fill="#d0d2d0"/><path d="M2100.449,1364.587c1.533-3.258-2.491-4.025-2.3-1.533.17,2.208.188,7.574-2.076,9.036a35.53,35.53,0,0,1-13.234-4.4,1.626,1.626,0,0,1,.169-1c1.725-3.45,12.841-6.324,9.391-7.474-2.747-.916-7.562,4.49-11.441,7.213-2.33-1.768-3.891-3.875-3.891-6.228,0-3.184,3.869-6.788,8.872-8.511,2.252.227,4.344,1.458,7.611,3.31,4.826,2.735,3.71-1.687-.853-4.311a13.745,13.745,0,0,1,10.763,5.908s-.274,1.719,1.545,4.377c4.962,7.252-.764,11.486-7.61,11.212A44.992,44.992,0,0,1,2100.449,1364.587Z" transform="translate(-1752.108 -893.854)" fill="#d0d2d0"/><path d="M2366.285,1472.9c3.748,2.9,7.911,6.282,13.022,8.582s4.089,9.8,4.089,9.8.767-6.474-3.492-8.689-7.07-4.855-10.307-5.366a46.912,46.912,0,0,1-5.026-1.022s1.022-2.045.426-2.811S2366.285,1472.9,2366.285,1472.9Z" transform="translate(-1998.92 -998.723)" fill="#d0d2d0"/><path d="M2340.325,1232.9c-13.715,3.663-23.766,12.437-25.64,14.566s-1.874,2.726-1.874,2.726l1.448,2.726.682-.341s-1.107-2.3,1.789-5.281a52.419,52.419,0,0,1,15.248-10.989C2336.151,1234.52,2340.325,1232.9,2340.325,1232.9Z" transform="translate(-1954.487 -792.733)" fill="#d0d2d0"/><path d="M9.366,0h0a9.366,9.366,0,0,1,9.366,9.366v9.419a0,0,0,0,1,0,0H0a0,0,0,0,1,0,0V9.366A9.366,9.366,0,0,1,9.366,0Z" transform="translate(359.968 516.081) rotate(180)" fill="#a1bce2"/><rect width="18.732" height="1.319" transform="translate(341.236 499.448)" fill="#fff"/><rect width="18.732" height="0.776" transform="translate(341.236 501.852)" fill="#fff"/></g><g transform="translate(-256 -1235)"><g transform="translate(4 9)"><path d="M592.089,166.549h-.739v-37.1a12.694,12.694,0,0,0-12.694-12.694H496.03a12.694,12.694,0,0,0-12.694,12.694V145.7h-.28a.746.746,0,0,0-.746.746v7.27a.746.746,0,0,0,.746.746h.28v7.277h-.345a.745.745,0,0,0-.746.746v13.758a.746.746,0,0,0,.746.746h.345v5.336h-.313a.745.745,0,0,0-.746.746v13.889a.746.746,0,0,0,.746.746h.313V323.582a12.694,12.694,0,0,0,12.694,12.694h82.627a12.694,12.694,0,0,0,12.694-12.694V193.158h.739a.746.746,0,0,0,.746-.745V167.295A.746.746,0,0,0,592.089,166.549Z" transform="translate(-98.815 1405.22)" fill="#3f3d56"/><path d="M632.961,139.773H620.4a1.424,1.424,0,0,1-1.423-1.422v-.544a1.424,1.424,0,0,1,1.423-1.422h12.564a1.424,1.424,0,0,1,1.423,1.422v.544A1.424,1.424,0,0,1,632.961,139.773Z" transform="translate(-191.03 1391.98)" fill="#fff"/><circle cx="1.739" cy="1.739" r="1.739" transform="translate(445.471 1528.322)" fill="#fff"/><path d="M592.179,134.313H579.807V135.8a7.065,7.065,0,0,1-7.065,7.065H533.329a7.062,7.062,0,0,1-7.065-7.058v-1.494h-11.6a8.579,8.579,0,0,0-8.579,8.579h0V333.82a8.579,8.579,0,0,0,8.579,8.579h77.515a8.576,8.576,0,0,0,8.576-8.576V142.892a8.576,8.576,0,0,0-8.572-8.579Z" transform="translate(-114.894 1393.377)" fill="#fff"/></g><g transform="translate(3 -70)"><path d="M569.372,370.817H481.7a2.848,2.848,0,0,1-2.823-2.866V180.791a2.848,2.848,0,0,1,2.823-2.866h87.675a2.848,2.848,0,0,1,2.823,2.866V367.95A2.848,2.848,0,0,1,569.372,370.817Z" transform="translate(-85.447 1436.633)" fill="#fff"/><ellipse cx="24.156" cy="24.156" rx="24.156" ry="24.156" transform="translate(415.6 1629.076)" fill="#e6e6e6"/><circle cx="20.886" cy="20.886" r="20.886" transform="translate(418.538 1632.377)" fill="#fff"/><path d="M594.826,256.9a11.908,11.908,0,1,0,11.908,11.908A11.908,11.908,0,0,0,594.826,256.9Zm0,3.572a3.572,3.572,0,1,1-3.572,3.572A3.572,3.572,0,0,1,594.826,260.472Zm0,17.2a8.675,8.675,0,0,1-7.145-3.813c.057-2.381,4.763-3.693,7.145-3.693s7.087,1.311,7.145,3.693a8.689,8.689,0,0,1-7.145,3.814Z" transform="translate(-154.937 1384.592)" fill="#00b76a"/><rect width="41.791" height="3.141" transform="translate(417.9 1686.125)" fill="#e6e6e6"/><rect width="52.594" height="3.141" transform="translate(412.309 1694.394)" fill="#e6e6e6"/><rect width="74.09" height="74.09" transform="translate(403.043 1719.442)" fill="#e6e6e6"/><rect width="70.955" height="70.955" transform="translate(404.221 1721.01)" fill="#fff"/><g transform="translate(418.833 1727.233)"><rect width="27.62" height="2.076" transform="translate(0 0)" fill="#e6e6e6"/><rect width="42.652" height="2.076" transform="translate(0 6.095)" fill="#00b76a"/><rect width="34.76" height="2.076" transform="translate(0.443 11.899)" fill="#e6e6e6"/><rect width="20.292" height="2.076" transform="translate(0 18.267)" fill="#e6e6e6"/><rect width="30.627" height="2.076" transform="translate(0 24.488)" fill="#00b76a"/><rect width="27.62" height="2.076" transform="translate(0 30.747)" fill="#e6e6e6"/><rect width="42.652" height="2.076" transform="translate(0 36.842)" fill="#00b76a"/><rect width="34.76" height="2.076" transform="translate(0.443 42.646)" fill="#e6e6e6"/><rect width="20.292" height="2.076" transform="translate(0 49.015)" fill="#e6e6e6"/><rect width="30.627" height="2.076" transform="translate(0 55.235)" fill="#e6e6e6"/></g></g></g><g transform="translate(-9 -5)"><path d="M541.147,325.568h-18.6v-5.646c5.877-4.09,11.084-3.734,17.934.332Z" transform="translate(-417.436 89.502)" fill="#00b76a"/><path d="M272.02,371.373h-4.072l-.609-15.7h4.681Z" transform="translate(-171.214 145.387)" fill="#ffb8b8"/><path d="M486.3,645.98H473.176v-.166a5.11,5.11,0,0,1,5.11-5.11H486.3Z" transform="translate(-384.46 -125.273)" fill="#2f2e41"/><path d="M350.485,371.373h4.072l.609-15.7h-4.681Z" transform="translate(-226.746 145.387)" fill="#ffb8b8"/><path d="M575.507,640.7h8.019a5.11,5.11,0,0,1,5.11,5.11v.166H575.507Z" transform="translate(-452.806 -125.273)" fill="#2f2e41"/><path d="M520.308,522.676a1.5,1.5,0,0,1-1.459-1.17L508.757,477.49a.484.484,0,0,0-.486-.39h0a.484.484,0,0,0-.485.395l-9.267,43.72a1.5,1.5,0,0,1-1.462,1.184h-4.414a1.495,1.495,0,0,1-1.492-1.583l3.288-55.413,1.323-.391h.025l25.99.227,5.535,55.352a1.494,1.494,0,0,1-1.367,1.635l-5.514.445Q520.367,522.676,520.308,522.676Z" transform="translate(-396.461 -7.93)" fill="#2f2e41"/><circle cx="8.157" cy="8.157" r="8.157" transform="translate(104.957 388.444)" fill="#ffb8b8"/><path d="M511.368,374.591a14.08,14.08,0,0,1-4.227-.595,9.331,9.331,0,0,1-5.658-4.774,1.5,1.5,0,0,1-.111-1.114c.9-3.07,5.247-19.03,2.473-31.717a13.445,13.445,0,0,1,1.911-10.333,13.277,13.277,0,0,1,8.611-5.791h0c.46-.09.923-.163,1.375-.219a13.23,13.23,0,0,1,10.713,3.525,13.556,13.556,0,0,1,4.256,10.747l-2.132,34.208a1.481,1.481,0,0,1-.8,1.23C525.327,371.043,517.952,374.591,511.368,374.591Z" transform="translate(-403.252 87.974)" fill="#3f3d56"/><path d="M537.043,256.946a10.015,10.015,0,0,0-10.977-6.172l2.572,2.078c-3.2.108-6.559-.121-8.84,2.119.726-.02,1.678,1.533,2.4,1.513a3.809,3.809,0,0,0-3.189,2.2,6.266,6.266,0,0,0-.37,3.984c.268,1.331,2.314,4.451,2.865,5.692-.095-3.245,6.293-10.984,9.412-10.176a8.559,8.559,0,0,0-3.952,3,11.592,11.592,0,0,1,6.875-1.125,4.865,4.865,0,0,0,1.639.092,2,2,0,0,0,1.186-3.2Z" transform="translate(-414.714 133.602)" fill="#2f2e41"/><path d="M495.763,374.715a1.5,1.5,0,0,1-.6-.126l-15.476-6.755a1.485,1.485,0,0,1-.848-1.752l10.245-38.7a5.6,5.6,0,0,1,6.954-3.953l4.1,1.169-2.884,48.713a1.5,1.5,0,0,1-.713,1.186A1.484,1.484,0,0,1,495.763,374.715Z" transform="translate(-388.209 85.779)" fill="#00b76a"/><path d="M573.323,366.078l-.681-2.567-.986-3.733-.475-1.79-.986-3.723-7.117-26.89a5.595,5.595,0,0,0-6.954-3.952l-4.095,1.169,2.029,34.263.209,3.577.133,2.255v0l.212,3.557.3,5.058a1.5,1.5,0,0,0,1.491,1.408,1.521,1.521,0,0,0,.6-.126l15.476-6.755A1.483,1.483,0,0,0,573.323,366.078Z" transform="translate(-437.125 85.781)" fill="#00b76a"/><path d="M347.113,178.7,330.2,183.146l-.21-3.577,16.137-4.59Z" transform="translate(-213.058 265.101)" fill="#ccc"/><path d="M349.263,195.313l-18.03,4.736-.212-3.557v0l17.256-4.908Z" transform="translate(-213.746 254.09)" fill="#ccc"/><path d="M274.4,180.854l-.21,3.51L257.6,179.423l.973-3.673Z" transform="translate(-164.709 264.594)" fill="#ccc"/><path d="M271.14,197.663,254.213,192.2l-.973,3.683,17.694,5.27Z" transform="translate(-161.797 253.684)" fill="#ccc"/><path d="M476.125,398.889a3.568,3.568,0,0,0,2.339-4.945l7.958-24.983-5.643-1.182-7.3,24.494a3.587,3.587,0,0,0,2.642,6.616Z" transform="translate(-383.413 56.032)" fill="#ffb8b8"/><path d="M500.274,334.332h0c1.62.165,2.532,1.987,2.129,4.256l-1.933,10.886c-.145.816-.816,1.462-1.375,1.323l-6.539-1.635c-.5-.126-.689-.841-.4-1.556l3.926-9.848C496.931,335.618,498.7,334.171,500.274,334.332Z" transform="translate(-397.045 78.088)" fill="#3f3d56"/><path d="M525.176,241.75h0A10.625,10.625,0,0,1,535.8,252.044h2a.664.664,0,0,1,.664.664v2.657a.664.664,0,0,1-.664.664H515.213a.664.664,0,0,1-.664-.664v-2.989a10.627,10.627,0,0,1,10.627-10.627Z" transform="translate(-412.093 139.473)" fill="#00b76a"/><path d="M537.829,419.085h-4.694a.6.6,0,0,1-.6-.547l-.94-9.632h7.78l-.94,9.631a.6.6,0,0,1-.6.547Z" transform="translate(-423.475 28.559)" fill="#e6e6e6"/><path d="M538.165,407.194h-7.755a.607.607,0,0,1-.606-.606v-1.454a.607.607,0,0,1,.606-.606h7.755a.607.607,0,0,1,.606.606v1.454A.607.607,0,0,1,538.165,407.194Z" transform="translate(-422.282 31.399)" fill="#ccc"/><path d="M535.839,390.963a3.5,3.5,0,0,1,.54.106l12.5-10.722-.731-3.934,5.793-1.879,1.971,6.838a2.657,2.657,0,0,1-1.132,2.981l-15.834,10.02a3.486,3.486,0,1,1-3.109-3.41Z" transform="translate(-423.732 51.478)" fill="#ffb8b8"/><path d="M577.348,336.862h0c1.731-.484,3.46.833,4.04,3.077l2.781,10.77c.208.807-.2,1.665-.829,1.756l-7.408,1.066c-.57.082-1.072-.5-1.093-1.272l-.288-10.6C574.488,339.359,575.67,337.332,577.348,336.862Z" transform="translate(-452.166 76.47)" fill="#3f3d56"/></g><g transform="translate(-38 1)"><g transform="translate(255.475 383.434)"><path d="M912.277,541.895a3.032,3.032,0,0,1-5.264-3.01l.021-.035a3.274,3.274,0,0,1,.286-.405l-2.551-18.179-.076-.545-.518-3.71-.076-.535.282.013,4.942.226,1.325.06.166,3.384.94,19.026A3.028,3.028,0,0,1,912.277,541.895Z" transform="translate(-868.927 -475.322)" fill="#ffb8b8"/><path d="M899.361,489.936l6.275-.576a1.239,1.239,0,0,0,1.117-1.341l-1.162-13.049a4.758,4.758,0,1,0-9.478.846q.012.135.032.269l1.882,12.8a1.237,1.237,0,0,0,1.221,1.056A.872.872,0,0,0,899.361,489.936Z" transform="translate(-863.582 -445.373)" fill="#00b76a"/><path d="M877.805,474.326a8.74,8.74,0,0,0-3.214-10.059c-2.366-1.619-5.6-2.2-9.091,1.951a43.412,43.412,0,0,0-8.8,17.435l14.28,2.325S875.836,480.042,877.805,474.326Z" transform="translate(-837.27 -440.305)" fill="#00b76a"/><path d="M838.622,747.03h-4.072l-1.937-15.7h6.009Z" transform="translate(-821.184 -619.487)" fill="#ffb8b8"/><path d="M814.8,780.054h12.8V775.11h-7.852A4.944,4.944,0,0,0,814.8,780.054Z" transform="translate(-809.289 -648.73)" fill="#2f2e41"/><path d="M930.114,737.933l-3.866,1.278-6.768-14.3,5.706-1.886Z" transform="translate(-879.201 -613.941)" fill="#ffb8b8"/><path d="M920.478,772.48l12.15-4.016-1.552-4.694-7.455,2.464a4.944,4.944,0,0,0-3.143,6.246Z" transform="translate(-879.7 -641.156)" fill="#2f2e41"/><circle cx="8.157" cy="8.157" r="8.157" transform="translate(23.414 3.531)" fill="#ffb8b8"/><path d="M826.534,603l3.781-24.956a1.162,1.162,0,0,1,2.279-.1l5.758,23.783a1.505,1.505,0,0,0,1.69,1.124l15.883-2.552a1.494,1.494,0,0,0,1.193-1.91l-20.71-68.28a1.162,1.162,0,0,1-.02-.6l.689-2.989a1.489,1.489,0,0,0-.773-1.665c-2.82-1.439-9.963-4.431-15.353-1.154a1.512,1.512,0,0,0-.69.972l-16.179,76.042a1.495,1.495,0,0,0,1.328,1.8l19.513,1.747q.066.006.133.006a1.5,1.5,0,0,0,1.477-1.27Z" transform="translate(-802.105 -479.833)" fill="#2f2e41"/><path d="M905.394,403.49a6.17,6.17,0,0,1-1.612-1.4,2.093,2.093,0,0,1-.322-2.026,2.126,2.126,0,0,1,2.586-.887,6.175,6.175,0,0,1,2.376,1.771,6.106,6.106,0,0,1,1.528,2.122,1.856,1.856,0,0,1-2.984,2.147,6.134,6.134,0,0,1-1.5-2.082Z" transform="translate(-868.414 -397.565)" fill="#2f2e41"/><path d="M917.865,398.167c.045-2.3,2.665-3.946,4.927-3.539a7,7,0,0,1,4.872,4.464c1.839,4.495.459,9.624-1.313,14.148s-3.965,9.113-3.707,13.963a14.588,14.588,0,0,0,8.474,12.288c-2.553,1.157-5.605-.038-7.751-1.842A15.49,15.49,0,0,1,919,420.7c1.1-2.866,3.043-5.319,4.559-7.989s2.628-5.818,1.845-8.787-4.113-5.373-6.96-4.224Z" transform="translate(-878.122 -394.566)" fill="#2f2e41"/><path d="M873.583,414.926c.711-1.2,1.428-2.779.129-3.829a2.678,2.678,0,0,0-2.009-.531,9.584,9.584,0,0,1-4.479-.283,4.2,4.2,0,0,1-2.436-2.189,4.324,4.324,0,0,1,1.715-4.94,5.779,5.779,0,0,1,6.4-.113,6.589,6.589,0,0,1,6.189.719,9.837,9.837,0,0,1,3.7,5.2,10.032,10.032,0,0,1,.307,5.518,8.2,8.2,0,0,1-5.086,5.606,2.953,2.953,0,0,1-2.917-.432,5.486,5.486,0,0,1-1.476-2.163A3.479,3.479,0,0,1,873.583,414.926Z" transform="translate(-842.501 -399.618)" fill="#2f2e41"/><path d="M805.08,457.161a3.5,3.5,0,0,1,.079.545l14.266,8.23,3.468-2,3.7,4.839-5.8,4.131a2.657,2.657,0,0,1-3.188-.078l-14.712-11.606a3.487,3.487,0,1,1,2.184-4.065Z" transform="translate(-798.195 -434.575)" fill="#ffb8b8"/><path d="M862.93,476.491l4.611,5.976a1.494,1.494,0,0,0,2.258.124l5.22-5.42a4.151,4.151,0,1,0-4.957-6.66q-.068.05-.133.1l-6.546,3.66a1.494,1.494,0,0,0-.453,2.217Z" transform="translate(-841.223 -444.74)" fill="#00b76a"/></g></g></g></svg>