<svg id="Checkmark_icon_12px"
    xmlns="http://www.w3.org/2000/svg"
    width="13.491"
    height="10.024"
    viewBox="0 0 13.491 10.024">
    <path
        id="Path_71"
        d="M.416,4.73a1.11,1.11,0,0,1,1.6.137l2.42,2.466L11.6.346a1.106,1.106,0,0,1,1.6.091,1.1,1.1,0,0,1-.091,1.6L5.165,9.8a.933.933,0,0,1-.411.228H4.708a.168.168,0,0,1-.137.046H4.16c-.046,0-.137-.046-.183-.046h0a2.144,2.144,0,0,1-.411-.274L.324,6.374A1.116,1.116,0,0,1,.416,4.73Z"
        transform="translate(-0.008 -0.048)"
        fill="#00b76a" />
</svg>
